<?xml version="1.0" encoding="utf-8"?>
<!-- Generator: Adobe Illustrator 28.0.0, SVG Export Plug-In . SVG Version: 6.00 Build 0 made by Betty)  -->
<svg version="1.1" id="Capa_1" xmlns="http://www.w3.org/2000/svg" xmlns:xlink="http://www.w3.org/1999/xlink" x="0px"
	y="0px" viewBox="0 0 404.8 302.2" style="enable-background:new 0 0 404.8 302.2;" xml:space="preserve">

	<style>
		path {
			fill: #000;
		}

		.st0 {
			fill: #FFF;
		}

		.st1 {
			fill: #000;
		}

		.st2 {
			fill: #1EACEA;
		}

		.st3 {
			fill: #99DC1B;
		}

		.st4 {
			fill: #F8B801;
		}

		.st5 {
			fill: #E81F7B;
		}


		@media (prefers-color-scheme: dark) {
			path {
				fill: #FFF;
			}

			.st0 {
				fill: #000;
			}

			.st1 {
				fill: #FFF;
			}

			.st2 {
				fill: #1EACEA;
			}

			.st3 {
				fill: #99DC1B;
			}

			.st4 {
				fill: #F8B801;
			}

			.st5 {
				fill: #E81F7B;
			}
		}
	</style>
	<circle class="st1" cx="70.5" cy="139" r="15.5" />
	<circle class="st1" cx="18.9" cy="116.6" r="15.5" />
	<circle class="st1" cx="122.1" cy="161.2" r="15.5" />
	<circle class="st1" cx="173.7" cy="183" r="15.5" />
	<path class="st2" d="M173.7,212.3L173.7,212.3c7.8,0,14.2,6.3,14.2,14.2v58.7c0,7.8-6.3,14.2-14.2,14.2l0,0c-7.8,0-14.2-6.3-14.2-14.2v-58.7
	C159.5,218.7,165.9,212.3,173.7,212.3z" />
	<path class="st3" d="M122.1,190.6L122.1,190.6c7.8,0,14.2,6.3,14.2,14.2v53.5c0,7.8-6.3,14.2-14.2,14.2l0,0c-7.8,0-14.2-6.3-14.2-14.2v-53.5
	C107.9,197,114.3,190.6,122.1,190.6z" />
	<path class="st4" d="M70.5,168.4L70.5,168.4c7.8,0,14.2,6.3,14.2,14.2v49.1c0,7.8-6.3,14.2-14.2,14.2l0,0c-7.8,0-14.2-6.3-14.2-14.2v-49.1
	C56.3,174.7,62.7,168.4,70.5,168.4z" />
	<path class="st5" d="M18.9,145.3L18.9,145.3c7.8,0,14.2,6.3,14.2,14.2v45.2c0,7.8-6.3,14.2-14.2,14.2l0,0c-7.8,0-14.2-6.3-14.2-14.2v-45.2
	C4.8,151.6,11.1,145.3,18.9,145.3z" />
	<g>
		<path d="M401.3,107.6c-1.6-39.9-23.3-74.7-55.6-92.7c-0.9-0.9-1.9-1.7-3.2-2.3C306.3-5.2,263.2-1.1,231.1,23.3
		c-10.7,8.2-19.8,18.4-26.7,29.9C191.7,32,172.1,15.9,148.8,7.7C93.6-11.8,32.9,17.1,13.4,72.3c-2.1,5.9,1,12.4,6.9,14.5
		c5.9,2.1,12.4-1,14.5-6.9c1.4-3.8,3-7.6,4.9-11.1c0.5-1,1.1-2.1,1.7-3.1c0.1-0.2,0.3-0.4,0.4-0.6c0.6-1.1,1.3-2.1,2-3.2
		c0-0.1,0.1-0.1,0.1-0.2c1.5-2.3,3.1-4.4,4.8-6.5c0,0,0.1-0.1,0.1-0.1c10.6-12.9,24.8-22.4,41.1-27.1c44.3-13,90.7,12.4,103.5,56.7
		c1.1,3.8,4,6.7,7.8,7.8c4.5,1.3,9.2-0.4,12-3.9c1-1.2,1.8-2.6,2.2-4.2c2.2-7.7,5.5-14.9,9.7-21.5c15.1-23.3,41.4-38.2,70.2-38.2
		c46,0,85.6,37.3,83.4,83c-1.3,26.8-22.3,48.4-67.5,80.1l-0.1,0.1c-11.4,7.9-24.1,16.4-38.6,25.9c-14.3,9.3-27.3,20.4-38.7,33
		c-0.5,0.6-1.1,1.2-1.6,1.8c-10.9,11.5-17.9,26.2-20.2,41.9c-0.1,0.3-0.1,0.7-0.1,1.1c0,4.3,3.5,7.8,7.8,7.8h22
		c2.8-10,6.9-19.6,12.2-28.6c0.3-0.5,0.6-0.9,1-1.3c1.8-2.4,4.6-3.9,7.8-3.9c5.5,0,9.9,4.4,9.9,9.9c0,1.9-0.5,3.6-1.4,5.1
		c-2.8,6-5,12.4-6.6,18.8h33.5c3.1,0.1,5.9-1.8,7.2-4.6c10-23,60.3-91,61.2-92.2l-0.3,0.2C385.2,178.4,402.9,146.3,401.3,107.6z
		 M368,161.3l0.1-0.2c3.2-3.9,6.1-8.2,8.6-12.6c2.5-4.5,4.6-9.2,6.3-14c0.2-0.7,1-1.1,1.8-0.9c0.7,0.2,1.1,1,0.9,1.7
		c-1.3,5.2-3,10.2-5.2,15.1c-2.2,4.9-4.8,9.6-7.8,14c0,0.1-0.1,0.1-0.1,0.2c-0.1,0.1-0.1,0.2-0.2,0.2c0,0-0.1,0.1-0.1,0.1
		c-0.5,0.4-1.1,0.7-1.8,0.7c-0.8,0-1.6-0.4-2.1-0.9c0,0-0.1-0.1-0.1-0.1c-0.1-0.1-0.1-0.2-0.2-0.2
		C367.4,163.4,367.4,162.2,368,161.3z M307.7,233.7l-2.8,2.6l-2.8,2.6c-1.8,1.7-3.6,3.5-5.3,5.3c-3.4,3.5-6.5,7.1-9.6,10.9
		c0,0-0.1,0.1-0.1,0.1c0,0-0.1,0.1-0.1,0.1c-2.8,3.8-8.1,4.5-11.9,1.7s-4.5-8.1-1.7-11.9c0.1-0.1,0.2-0.3,0.3-0.4
		c0.1-0.1,0.2-0.3,0.3-0.4c0,0,0,0,0,0c0-0.1,0.1-0.1,0.1-0.2c0.1-0.1,0.1-0.1,0.2-0.2c0.1-0.1,0.2-0.2,0.3-0.3
		c3.6-3.8,7.5-7.4,11.4-10.8c2.1-1.8,4.2-3.5,6.3-5.2l3.2-2.5l3.1-2.4c0.3-0.2,0.6-0.4,0.9-0.6c1.1-0.6,2.3-1,3.6-1
		c3.9,0,7.1,3.1,7.1,7C310.3,230.4,309.3,232.4,307.7,233.7z M353.9,187.2c-0.2,0.8-0.6,1.6-1.2,2.2c-7.1,7.8-14.5,15.4-22,22.7
		c-2.3,2.1-5.9,1.9-8-0.4c-2-2.2-2-5.6,0.1-7.7l0.4-0.4c8-6.6,16-13.2,23.5-20.2c0.6-0.6,1.4-1,2.2-1.2c0.3-0.1,0.6-0.1,0.9-0.1
		c2.3,0,4.2,1.9,4.2,4.2C354,186.6,353.9,186.9,353.9,187.2z" />
		<path class="st0" d="M272.6,275.4c0-5.5-4.4-9.9-9.9-9.9c-3.2,0-6,1.5-7.8,3.9c-0.3,0.4-0.7,0.8-1,1.3c-5.3,9-9.4,18.6-12.2,28.6
		l22.9,0c0,0,0,0,0,0c1.6-6.4,3.8-12.8,6.6-18.8C272,279,272.6,277.3,272.6,275.4z" />
		<path class="st0" d="M303.2,221.2c-1.3,0-2.6,0.4-3.6,1c-0.3,0.2-0.6,0.4-0.9,0.6l-3.1,2.4l-3.2,2.5c-2.1,1.7-4.2,3.4-6.3,5.2
		c-3.9,3.3-7.7,7-11.4,10.8c-0.1,0.1-0.2,0.2-0.3,0.3c-0.1,0.1-0.1,0.1-0.2,0.2c-0.1,0.1-0.1,0.1-0.1,0.2c0,0,0,0,0,0
		c-0.1,0.1-0.2,0.3-0.3,0.4c-0.1,0.1-0.2,0.3-0.3,0.4c-2.8,3.8-2.1,9.1,1.7,11.9s9.1,2.1,11.9-1.7c0,0,0.1-0.1,0.1-0.1
		c0,0,0.1-0.1,0.1-0.1c3-3.8,6.2-7.4,9.6-10.9c1.7-1.8,3.5-3.6,5.3-5.3l2.8-2.6l2.8-2.6c1.6-1.3,2.6-3.3,2.6-5.5
		C310.3,224.3,307.1,221.2,303.2,221.2z" />
		<path class="st0" d="M349.8,182.1c-0.3,0-0.6,0-0.9,0.1c-0.8,0.2-1.6,0.6-2.2,1.2c-7.5,7-15.5,13.6-23.5,20.2l-0.4,0.4
		c-2.1,2.1-2.1,5.5-0.1,7.7c2.1,2.3,5.7,2.5,8,0.4c7.5-7.3,14.9-14.9,22-22.7c0.6-0.6,1-1.4,1.2-2.2c0.1-0.3,0.1-0.6,0.1-0.9
		C354,184,352.1,182.1,349.8,182.1z" />
		<path class="st0" d="M368.2,164.5c0,0,0.1,0.1,0.1,0.1c0.5,0.6,1.3,0.9,2.1,0.9c0.7,0,1.3-0.3,1.8-0.7c0,0,0.1-0.1,0.1-0.1
		c0.1-0.1,0.1-0.2,0.2-0.2c0-0.1,0.1-0.1,0.1-0.2c3-4.4,5.6-9.1,7.8-14c2.2-4.9,3.9-9.9,5.2-15.1c0.2-0.7-0.2-1.5-0.9-1.7
		c-0.8-0.2-1.6,0.2-1.8,0.9c-1.7,4.8-3.8,9.5-6.3,14c-2.5,4.4-5.4,8.7-8.6,12.6l-0.1,0.2c-0.6,0.9-0.6,2.1,0,3
		C368.1,164.4,368.1,164.5,368.2,164.5z" />
	</g>
	<path class="st0"
		d="M384.4,136.3c-0.8,0-1.4-0.6-1.4-1.4s0.6-1.4,1.4-1.4s1.4,0.6,1.4,1.4S385.2,136.3,384.4,136.3L384.4,136.3z" />
	<path class="st0"
		d="M384.4,136.3c-0.8,0-1.4-0.6-1.4-1.4s0.6-1.4,1.4-1.4s1.4,0.6,1.4,1.4S385.2,136.3,384.4,136.3L384.4,136.3z" />
</svg>